<?xml version="1.0" encoding="UTF-8"?>
<svg width="2048px" height="2048px" viewBox="0 0 2048 2048" version="1.1" xmlns="http://www.w3.org/2000/svg" xmlns:xlink="http://www.w3.org/1999/xlink">
    <title>Combined Shape</title>
    <g id="Page-1" stroke="none" stroke-width="1" fill="none" fill-rule="evenodd">
        <path d="M2048,0 L2048,2048 L0,2048 L0,0 L2048,0 Z M1072,896 L976,896 C967.1637,896 960,903.16375 960,912 C960,920.8363 952.8363,928 944,928 C935.1637,928 928,935.1637 928,944 C928,952.8363 920.8363,960 912,960 C903.16375,960 896,967.1637 896,976 L896,1072 C896,1080.836 903.16375,1088 912,1088 C920.8363,1088 928,1095.164 928,1104 C928,1112.836 935.1637,1120 944,1120 C952.8363,1120 960,1127.164 960,1136 C960,1144.836 967.1637,1152 976,1152 L1072,1152 C1080.836,1152 1088,1144.836 1088,1136 C1088,1127.164 1095.164,1120 1104,1120 C1112.836,1120 1120,1112.836 1120,1104 C1120,1095.164 1127.164,1088 1136,1088 C1144.836,1088 1152,1080.836 1152,1072 L1152,976 C1152,967.1637 1144.836,960 1136,960 C1127.164,960 1120,952.8363 1120,944 C1120,935.1637 1112.836,928 1104,928 C1095.164,928 1088,920.8363 1088,912 C1088,903.16375 1080.836,896 1072,896 Z" id="Combined-Shape" fill="#101010"></path>
    </g>
</svg>